<svg xmlns="http://www.w3.org/2000/svg" xmlns:xlink="http://www.w3.org/1999/xlink" width="500" zoomAndPan="magnify" viewBox="0 0 375 374.999991" height="500" preserveAspectRatio="xMidYMid meet" version="1.0"><defs><clipPath id="194db1e031"><path d="M 41.777344 23.996094 L 337 23.996094 L 337 253 L 41.777344 253 Z M 41.777344 23.996094 " clip-rule="nonzero"/></clipPath></defs><rect x="-37.5" width="450" fill="#ffffff" y="-37.499999" height="449.999989" fill-opacity="1"/><rect x="-37.5" width="450" fill="#ffffff" y="-37.499999" height="449.999989" fill-opacity="1"/><rect x="-37.5" width="450" fill="#ffffff" y="-37.499999" height="449.999989" fill-opacity="1"/><path fill="#000000" d="M 294.957031 112.636719 C 310.191406 119.132812 303.816406 152.792969 290.210938 173.410156 C 278.964844 190.457031 263.292969 195.503906 246.777344 193.449219 C 242.480469 192.914062 241.558594 194.355469 239.78125 195.996094 C 228.679688 206.261719 218.5625 218.089844 209.082031 230.9375 C 222.167969 245.207031 234.425781 259.957031 245.832031 274.742188 C 241.707031 274.140625 237.605469 273.34375 233.527344 272.398438 C 219.980469 252.871094 205.523438 234.4375 188.183594 216.761719 C 203.375 234.136719 217.09375 252.421875 229.578125 271.433594 C 228.476562 271.152344 227.382812 270.863281 226.285156 270.5625 C 219.082031 259.453125 211.503906 248.789062 203.535156 238.660156 C 199.058594 245.074219 194.71875 251.695312 190.46875 258.472656 L 188.371094 257.699219 C 192.867188 250.726562 197.460938 243.828125 202.199219 236.96875 C 201.90625 236.605469 201.613281 236.238281 201.320312 235.875 C 195.957031 242.816406 190.78125 249.753906 185.707031 256.726562 C 183.035156 255.75 180.394531 254.800781 177.777344 253.882812 C 183.84375 245.746094 190.050781 237.765625 196.53125 230.019531 C 185.613281 217.371094 174.875 205.664062 162.199219 194.410156 C 158.550781 191.171875 154.304688 191.75 150.5 194.433594 C 126.042969 211.664062 95.761719 151.929688 84.203125 128.324219 C 99.917969 150.042969 115.609375 172.910156 131.558594 184.1875 C 133.132812 185.300781 134.894531 186.039062 136.191406 184.976562 C 137.496094 183.910156 137.734375 181.617188 136.28125 180.320312 C 118.5 164.398438 102.929688 144.679688 92.257812 121.667969 C 106.824219 142.347656 122.8125 161.003906 141.085938 176.386719 C 142.570312 177.640625 144.695312 178.015625 145.992188 176.953125 C 147.292969 175.886719 147.867188 173.289062 146.355469 172.074219 C 128.222656 157.519531 110.488281 138.636719 101.246094 114.265625 C 115.382812 136.296875 131.777344 154.589844 150.886719 168.367188 C 152.453125 169.496094 154.222656 170.214844 155.523438 169.148438 C 156.820312 168.085938 155.976562 165.941406 154.484375 164.695312 C 134.972656 148.429688 118.4375 130.988281 109.097656 107.78125 C 124.890625 131.15625 148.992188 153.925781 159.902344 162.488281 C 166.777344 167.886719 168.105469 176.851562 163.769531 183.089844 C 161.546875 186.285156 165.351562 188.253906 167.074219 189.753906 C 179.320312 200.445312 191.007812 211.769531 202.121094 223.480469 C 211.519531 212.722656 221.558594 202.460938 232.632812 192.875 C 234.441406 191.308594 234.261719 189.402344 231.375 186.804688 C 222.984375 179.269531 223.644531 168.851562 232.324219 154.203125 C 229.460938 162.503906 230.609375 170.941406 238.453125 177.738281 C 246.59375 156.332031 265.25 131.753906 283.53125 120.621094 C 275.445312 118.585938 264.527344 122.027344 254.730469 128.335938 C 268.78125 116.542969 285.152344 108.457031 294.957031 112.636719 Z M 247.269531 276.609375 L 247.332031 276.691406 C 245.996094 276.496094 244.664062 276.28125 243.332031 276.042969 C 244.644531 276.25 245.957031 276.441406 247.269531 276.609375 Z M 276.128906 316.761719 L 276.375 317.125 C 274.574219 317.160156 272.738281 317.113281 270.867188 316.992188 C 272.625 316.96875 274.378906 316.894531 276.128906 316.761719 Z M 279.640625 321.996094 C 280.671875 323.546875 281.695312 325.09375 282.710938 326.636719 C 291.648438 340.246094 270.070312 352.453125 263.027344 337.378906 C 260.109375 331.140625 257.105469 324.976562 254.011719 318.890625 C 255.394531 319.25 256.765625 319.582031 258.125 319.886719 C 260.808594 324.949219 263.421875 330.050781 265.976562 335.179688 C 269.726562 342.710938 278.628906 341.644531 281.21875 334.726562 C 277.34375 336.484375 273.804688 335.1875 270.804688 330.359375 C 268.902344 327.292969 267.011719 324.253906 265.136719 321.238281 C 270.140625 322.011719 274.980469 322.3125 279.640625 321.996094 Z M 170.152344 292.816406 C 161.707031 307.695312 153.398438 322.800781 144.871094 337.570312 C 136.621094 351.859375 114.191406 341.648438 124.695312 327.75 C 133.886719 315.589844 142.527344 303.371094 151.023438 291.292969 C 154.386719 291.265625 157.746094 291.40625 161.089844 291.695312 C 152.894531 303.613281 144.613281 315.835938 135.871094 328.566406 C 132.65625 333.25 129.1875 336.839844 125.28125 335.148438 C 127.992188 342.023438 139.078125 341.492188 142.554688 335.257812 C 150.886719 320.308594 158.941406 306.089844 167.050781 292.351562 C 168.085938 292.492188 169.121094 292.652344 170.152344 292.816406 Z M 152.183594 289.640625 L 152.351562 289.402344 C 153.691406 289.492188 155.03125 289.605469 156.378906 289.746094 C 154.980469 289.683594 153.578125 289.644531 152.183594 289.640625 Z M 207.570312 229.296875 C 210.832031 224.699219 214.164062 220.109375 217.589844 215.523438 C 213.953125 219.917969 210.417969 224.285156 206.96875 228.648438 Z M 100.550781 154.597656 C 110.316406 169.894531 119.300781 185.472656 135.976562 193.867188 C 141.480469 196.640625 148.988281 191.117188 152.820312 188.894531 C 156.300781 186.871094 159.089844 187.601562 163.371094 189.570312 C 159.992188 186.75 160.203125 183.109375 161.71875 180.578125 C 156.144531 181.949219 151.925781 180.355469 149.359375 178.058594 C 147.496094 180.273438 143.546875 180.746094 140.035156 178.621094 L 135.652344 175.957031 L 138.554688 179.921875 C 142 184.621094 136.457031 190.601562 131.226562 186.902344 C 118.679688 178.027344 110.433594 168.085938 100.550781 154.597656 Z M 247.371094 189.804688 C 275.96875 195.023438 300.375 160.929688 300.789062 132.007812 C 296.457031 172.402344 261.554688 190.730469 247.371094 189.804688 Z M 247.371094 189.804688 " fill-opacity="1" fill-rule="evenodd"/><path fill="#000000" d="M 306.5 263.738281 L 306.503906 263.59375 C 283.449219 248.960938 258.867188 250.96875 234.175781 256.859375 C 239.109375 262.859375 243.890625 268.898438 248.519531 274.941406 C 267.0625 277.101562 286.914062 275.800781 306.5 263.738281 Z M 107.933594 303.84375 C 112.894531 309.617188 122.882812 314.382812 131.035156 315.632812 C 136.988281 308.03125 142.359375 300.234375 147.175781 292.242188 C 134.285156 291.65625 117.09375 296.894531 107.933594 303.84375 Z M 159.675781 315.25 C 173.234375 312.667969 188.972656 306.964844 204.144531 302.097656 C 193.953125 298.679688 182.550781 295.589844 172.039062 293.273438 C 167.898438 300.566406 163.792969 307.914062 159.675781 315.25 Z M 224.28125 270.003906 C 222.550781 267.308594 220.945312 264.945312 219.148438 262.320312 C 215.804688 263.242188 212.792969 264.136719 209.464844 265.089844 C 214.503906 266.964844 219.105469 268.542969 224.28125 270.003906 Z M 224.28125 270.003906 " fill-opacity="1" fill-rule="evenodd"/><path fill="#000000" d="M 105.800781 260.636719 C 151.484375 212 231.097656 311.132812 308.046875 265.175781 C 242.382812 313.113281 148.90625 220.1875 109.117188 263.8125 C 109.8125 275.753906 108.265625 288.082031 105.183594 300.6875 C 107.289062 286.625 107.492188 273.277344 105.800781 260.636719 Z M 105.800781 260.636719 " fill-opacity="1" fill-rule="evenodd"/><path fill="#000000" d="M 308.375 306.832031 C 262.691406 355.472656 183.074219 256.335938 106.128906 302.292969 C 171.792969 254.355469 265.269531 347.28125 305.058594 303.65625 C 304.363281 291.71875 305.910156 279.386719 308.992188 266.785156 C 306.886719 280.84375 306.683594 294.195312 308.375 306.832031 Z M 308.375 306.832031 " fill-opacity="1" fill-rule="evenodd"/><g clip-path="url(#194db1e031)"><path fill="#000000" d="M 289.933594 252.089844 C 317.605469 187.625 337.234375 111.398438 336.769531 30.304688 L 324.367188 40.308594 C 323.917969 34.882812 323.34375 29.449219 322.636719 23.996094 C 295.0625 56.308594 211.710938 77.832031 184.136719 110.144531 C 140.742188 109.242188 100.320312 87.320312 52.726562 106.804688 C 53.035156 109.996094 54.914062 120.132812 55.375 123.347656 L 41.828125 126.164062 C 56.363281 174.285156 84.945312 215.128906 114.351562 249.636719 C 90.113281 211.375 64.023438 156.570312 59.925781 111.476562 C 93.929688 92.589844 144.132812 113.878906 184.136719 114.785156 C 194.171875 145.386719 197.699219 175.1875 200.410156 203.695312 C 200.214844 173.640625 196.566406 143.589844 189.0625 113.53125 C 215.761719 81.042969 292.105469 63.027344 317.628906 36.792969 C 324.417969 109.011719 310.421875 183.34375 289.933594 252.089844 Z M 289.933594 252.089844 " fill-opacity="1" fill-rule="evenodd"/></g><path fill="#000000" d="M 103.214844 297.011719 C 105.089844 284.261719 104.320312 268.78125 101.167969 258.128906 C 104.039062 255.261719 107.25 252.71875 111.101562 250.417969 C 93.441406 234.039062 82.835938 215.683594 71.28125 198.03125 C 79.050781 216.644531 87.011719 232.75 102.417969 249.199219 C 98.695312 251.089844 96.167969 253.035156 93.40625 255.449219 C 100.664062 267.855469 102.410156 279.097656 103.214844 297.011719 Z M 103.214844 297.011719 " fill-opacity="1" fill-rule="evenodd"/><path fill="#000000" d="M 294.203125 252.53125 C 308.222656 220.339844 316.742188 188.308594 324.945312 155.484375 C 320.449219 187.160156 314.730469 218.132812 302.414062 249.808594 C 309.84375 253.261719 315.402344 256.710938 320.691406 260.167969 C 314.773438 273.785156 311.484375 287.972656 309.910156 303.53125 C 309.226562 289.746094 310.023438 276.882812 313.226562 262.867188 C 307.570312 258.890625 301.003906 255.484375 294.203125 252.53125 Z M 294.203125 252.53125 " fill-opacity="1" fill-rule="evenodd"/></svg>